<mxfile host="Electron" modified="2024-06-14T14:33:08.910Z" agent="Mozilla/5.0 (X11; Linux x86_64) AppleWebKit/537.36 (KHTML, like Gecko) draw.io/24.4.13 Chrome/124.0.6367.207 Electron/30.0.6 Safari/537.36" etag="fl1j-5NIGE84-kBgz4dZ" version="24.4.13" type="device">
  <diagram name="PÃ¡gina-1" id="0R84nbDcEIhOmc_J-1IX">
    <mxGraphModel dx="880" dy="481" grid="1" gridSize="10" guides="1" tooltips="1" connect="1" arrows="1" fold="1" page="1" pageScale="1" pageWidth="827" pageHeight="583" math="0" shadow="0">
      <root>
        <mxCell id="0" />
        <mxCell id="1" parent="0" />
        <mxCell id="fh4cbs8UZabaXsSXnEQW-17" value="&lt;b&gt;switch&lt;/b&gt;" style="ellipse;whiteSpace=wrap;html=1;fillColor=none;strokeColor=default;strokeWidth=3;labelPosition=center;verticalLabelPosition=bottom;align=center;verticalAlign=top;" parent="1" vertex="1">
          <mxGeometry x="241" y="350" width="120" height="120" as="geometry" />
        </mxCell>
        <mxCell id="fh4cbs8UZabaXsSXnEQW-18" value="" style="ellipse;whiteSpace=wrap;html=1;strokeWidth=2;" parent="1" vertex="1">
          <mxGeometry x="254" y="379" width="10" height="10" as="geometry" />
        </mxCell>
        <mxCell id="fh4cbs8UZabaXsSXnEQW-19" value="" style="ellipse;whiteSpace=wrap;html=1;fillColor=none;strokeColor=default;strokeWidth=2;" parent="1" vertex="1">
          <mxGeometry x="271" y="363" width="10" height="10" as="geometry" />
        </mxCell>
        <mxCell id="fh4cbs8UZabaXsSXnEQW-20" value="" style="ellipse;whiteSpace=wrap;html=1;fillColor=none;strokeColor=default;strokeWidth=2;" parent="1" vertex="1">
          <mxGeometry x="294" y="356" width="10" height="10" as="geometry" />
        </mxCell>
        <mxCell id="fh4cbs8UZabaXsSXnEQW-21" value="" style="ellipse;whiteSpace=wrap;html=1;fillColor=none;strokeColor=default;strokeWidth=2;" parent="1" vertex="1">
          <mxGeometry x="319" y="364" width="10" height="10" as="geometry" />
        </mxCell>
        <mxCell id="fh4cbs8UZabaXsSXnEQW-22" value="" style="ellipse;whiteSpace=wrap;html=1;fillColor=none;strokeColor=default;strokeWidth=2;" parent="1" vertex="1">
          <mxGeometry x="337" y="381" width="10" height="10" as="geometry" />
        </mxCell>
        <mxCell id="fh4cbs8UZabaXsSXnEQW-23" value="" style="ellipse;whiteSpace=wrap;html=1;fillColor=#d5e8d4;strokeColor=#82b366;strokeWidth=2;" parent="1" vertex="1">
          <mxGeometry x="346" y="406" width="10" height="10" as="geometry" />
        </mxCell>
        <mxCell id="fh4cbs8UZabaXsSXnEQW-25" value="" style="ellipse;whiteSpace=wrap;html=1;strokeWidth=2;" parent="1" vertex="1">
          <mxGeometry x="338" y="432" width="10" height="10" as="geometry" />
        </mxCell>
        <mxCell id="fh4cbs8UZabaXsSXnEQW-26" value="" style="ellipse;whiteSpace=wrap;html=1;fillColor=none;strokeColor=default;strokeWidth=2;" parent="1" vertex="1">
          <mxGeometry x="323" y="448" width="10" height="10" as="geometry" />
        </mxCell>
        <mxCell id="fh4cbs8UZabaXsSXnEQW-27" value="" style="ellipse;whiteSpace=wrap;html=1;fillColor=none;strokeColor=default;strokeWidth=2;" parent="1" vertex="1">
          <mxGeometry x="304" y="455" width="10" height="10" as="geometry" />
        </mxCell>
        <mxCell id="fh4cbs8UZabaXsSXnEQW-28" value="" style="ellipse;whiteSpace=wrap;html=1;fillColor=none;strokeColor=default;strokeWidth=2;" parent="1" vertex="1">
          <mxGeometry x="282" y="453" width="10" height="10" as="geometry" />
        </mxCell>
        <mxCell id="fh4cbs8UZabaXsSXnEQW-29" value="" style="ellipse;whiteSpace=wrap;html=1;strokeWidth=2;" parent="1" vertex="1">
          <mxGeometry x="263" y="442" width="10" height="10" as="geometry" />
        </mxCell>
        <mxCell id="fh4cbs8UZabaXsSXnEQW-30" value="" style="ellipse;whiteSpace=wrap;html=1;fillColor=none;strokeColor=default;strokeWidth=2;" parent="1" vertex="1">
          <mxGeometry x="250" y="424" width="10" height="10" as="geometry" />
        </mxCell>
        <mxCell id="fh4cbs8UZabaXsSXnEQW-31" value="" style="ellipse;whiteSpace=wrap;html=1;strokeWidth=2;fillColor=#d5e8d4;strokeColor=#82b366;" parent="1" vertex="1">
          <mxGeometry x="247" y="406" width="10" height="10" as="geometry" />
        </mxCell>
        <mxCell id="fh4cbs8UZabaXsSXnEQW-80" value="" style="endArrow=none;html=1;rounded=0;dashed=1;dashPattern=1 2;strokeWidth=2;fillColor=#d5e8d4;strokeColor=#82b366;" parent="1" edge="1">
          <mxGeometry width="50" height="50" relative="1" as="geometry">
            <mxPoint x="260" y="410" as="sourcePoint" />
            <mxPoint x="344.49" y="410.35" as="targetPoint" />
          </mxGeometry>
        </mxCell>
        <mxCell id="fh4cbs8UZabaXsSXnEQW-81" value="&lt;p style=&quot;line-height: 100%;&quot;&gt;Alice&lt;/p&gt;" style="rounded=0;whiteSpace=wrap;html=1;fillColor=none;strokeColor=default;strokeWidth=3;align=center;labelPosition=center;verticalLabelPosition=middle;verticalAlign=middle;horizontal=1;" parent="1" vertex="1">
          <mxGeometry x="50" y="378" width="90" height="63" as="geometry" />
        </mxCell>
        <mxCell id="fh4cbs8UZabaXsSXnEQW-82" value="" style="ellipse;whiteSpace=wrap;html=1;fillColor=#d5e8d4;strokeColor=#82b366;strokeWidth=2;" parent="1" vertex="1">
          <mxGeometry x="126" y="404.5" width="10" height="10" as="geometry" />
        </mxCell>
        <mxCell id="fh4cbs8UZabaXsSXnEQW-87" value="&lt;div style=&quot;&quot;&gt;Bob&lt;/div&gt;" style="rounded=0;whiteSpace=wrap;html=1;fillColor=none;strokeColor=default;strokeWidth=3;align=center;" parent="1" vertex="1">
          <mxGeometry x="461" y="378" width="100" height="59.5" as="geometry" />
        </mxCell>
        <mxCell id="fh4cbs8UZabaXsSXnEQW-88" value="" style="ellipse;whiteSpace=wrap;html=1;fillColor=#d5e8d4;strokeColor=#82b366;strokeWidth=2;" parent="1" vertex="1">
          <mxGeometry x="465" y="404.5" width="10" height="10" as="geometry" />
        </mxCell>
        <mxCell id="fh4cbs8UZabaXsSXnEQW-101" value="" style="curved=1;endArrow=none;html=1;rounded=0;endFill=0;fillColor=#d5e8d4;strokeColor=#82b366;strokeWidth=2;exitX=0;exitY=0.5;exitDx=0;exitDy=0;entryX=1;entryY=1;entryDx=0;entryDy=0;" parent="1" source="fh4cbs8UZabaXsSXnEQW-31" edge="1" target="fh4cbs8UZabaXsSXnEQW-82">
          <mxGeometry width="50" height="50" relative="1" as="geometry">
            <mxPoint x="256.99999999999994" y="436" as="sourcePoint" />
            <mxPoint x="144.96" y="420" as="targetPoint" />
            <Array as="points">
              <mxPoint x="238.96" y="451" />
              <mxPoint x="228.96" y="411" />
              <mxPoint x="208.96" y="461" />
              <mxPoint x="198.96" y="411" />
              <mxPoint x="178.96" y="461" />
              <mxPoint x="168.96" y="411" />
              <mxPoint x="158.96" y="465" />
            </Array>
          </mxGeometry>
        </mxCell>
        <mxCell id="HmIFvJZFF-LE-VKJrCdR-22" value="&lt;p style=&quot;line-height: 100%;&quot;&gt;Alice&lt;/p&gt;" style="rounded=0;whiteSpace=wrap;html=1;fillColor=none;strokeColor=default;strokeWidth=3;align=center;labelPosition=center;verticalLabelPosition=middle;verticalAlign=middle;horizontal=1;" vertex="1" parent="1">
          <mxGeometry x="50" y="260" width="90" height="63" as="geometry" />
        </mxCell>
        <mxCell id="HmIFvJZFF-LE-VKJrCdR-23" value="&lt;div style=&quot;&quot;&gt;Bob&lt;/div&gt;" style="rounded=0;whiteSpace=wrap;html=1;fillColor=none;strokeColor=default;strokeWidth=3;align=center;" vertex="1" parent="1">
          <mxGeometry x="461" y="263.5" width="100" height="59.5" as="geometry" />
        </mxCell>
        <mxCell id="HmIFvJZFF-LE-VKJrCdR-24" value="" style="endArrow=classic;startArrow=classic;html=1;rounded=0;exitX=1;exitY=0.5;exitDx=0;exitDy=0;entryX=0;entryY=0.5;entryDx=0;entryDy=0;strokeWidth=3;" edge="1" parent="1" source="HmIFvJZFF-LE-VKJrCdR-22" target="HmIFvJZFF-LE-VKJrCdR-23">
          <mxGeometry width="50" height="50" relative="1" as="geometry">
            <mxPoint x="390" y="440" as="sourcePoint" />
            <mxPoint x="440" y="390" as="targetPoint" />
          </mxGeometry>
        </mxCell>
        <mxCell id="HmIFvJZFF-LE-VKJrCdR-25" value="L" style="edgeLabel;html=1;align=center;verticalAlign=middle;resizable=0;points=[];fontSize=17;fontStyle=1" vertex="1" connectable="0" parent="HmIFvJZFF-LE-VKJrCdR-24">
          <mxGeometry x="0.134" y="-1" relative="1" as="geometry">
            <mxPoint as="offset" />
          </mxGeometry>
        </mxCell>
        <mxCell id="HmIFvJZFF-LE-VKJrCdR-27" value="" style="endArrow=classic;startArrow=classic;html=1;rounded=0;exitX=1;exitY=0.5;exitDx=0;exitDy=0;strokeWidth=3;" edge="1" parent="1">
          <mxGeometry width="50" height="50" relative="1" as="geometry">
            <mxPoint x="140" y="410" as="sourcePoint" />
            <mxPoint x="240" y="410" as="targetPoint" />
          </mxGeometry>
        </mxCell>
        <mxCell id="HmIFvJZFF-LE-VKJrCdR-33" value="L/2" style="edgeLabel;html=1;align=center;verticalAlign=middle;resizable=0;points=[];fontSize=17;fontStyle=1" vertex="1" connectable="0" parent="HmIFvJZFF-LE-VKJrCdR-27">
          <mxGeometry x="-0.04" y="1" relative="1" as="geometry">
            <mxPoint as="offset" />
          </mxGeometry>
        </mxCell>
        <mxCell id="HmIFvJZFF-LE-VKJrCdR-34" value="" style="endArrow=classic;startArrow=classic;html=1;rounded=0;exitX=1;exitY=0.5;exitDx=0;exitDy=0;strokeWidth=3;" edge="1" parent="1">
          <mxGeometry width="50" height="50" relative="1" as="geometry">
            <mxPoint x="361" y="409" as="sourcePoint" />
            <mxPoint x="461" y="409" as="targetPoint" />
          </mxGeometry>
        </mxCell>
        <mxCell id="HmIFvJZFF-LE-VKJrCdR-35" value="L/2" style="edgeLabel;html=1;align=center;verticalAlign=middle;resizable=0;points=[];fontSize=17;fontStyle=1" vertex="1" connectable="0" parent="HmIFvJZFF-LE-VKJrCdR-34">
          <mxGeometry x="-0.04" y="1" relative="1" as="geometry">
            <mxPoint as="offset" />
          </mxGeometry>
        </mxCell>
        <mxCell id="HmIFvJZFF-LE-VKJrCdR-36" value="" style="curved=1;endArrow=none;html=1;rounded=0;endFill=0;fillColor=#d5e8d4;strokeColor=#82b366;strokeWidth=2;exitX=0;exitY=1;exitDx=0;exitDy=0;" edge="1" parent="1" source="fh4cbs8UZabaXsSXnEQW-88">
          <mxGeometry width="50" height="50" relative="1" as="geometry">
            <mxPoint x="458" y="406" as="sourcePoint" />
            <mxPoint x="355.96000000000004" y="415" as="targetPoint" />
            <Array as="points">
              <mxPoint x="449.96000000000004" y="446" />
              <mxPoint x="439.96000000000004" y="406" />
              <mxPoint x="419.96000000000004" y="456" />
              <mxPoint x="409.96000000000004" y="406" />
              <mxPoint x="389.96000000000004" y="456" />
              <mxPoint x="379.96000000000004" y="406" />
              <mxPoint x="369.96000000000004" y="460" />
            </Array>
          </mxGeometry>
        </mxCell>
        <mxCell id="HmIFvJZFF-LE-VKJrCdR-38" value="" style="ellipse;whiteSpace=wrap;html=1;fillColor=#d5e8d4;strokeColor=#82b366;strokeWidth=2;" vertex="1" parent="1">
          <mxGeometry x="126" y="286.5" width="10" height="10" as="geometry" />
        </mxCell>
        <mxCell id="HmIFvJZFF-LE-VKJrCdR-39" value="" style="ellipse;whiteSpace=wrap;html=1;fillColor=#d5e8d4;strokeColor=#82b366;strokeWidth=2;" vertex="1" parent="1">
          <mxGeometry x="466" y="288.5" width="10" height="10" as="geometry" />
        </mxCell>
        <mxCell id="HmIFvJZFF-LE-VKJrCdR-40" value="" style="curved=1;endArrow=none;html=1;rounded=0;endFill=0;entryX=0.4;entryY=0.35;entryDx=0;entryDy=0;entryPerimeter=0;fillColor=#d5e8d4;strokeColor=#82b366;strokeWidth=2;" edge="1" parent="1" target="HmIFvJZFF-LE-VKJrCdR-38">
          <mxGeometry width="50" height="50" relative="1" as="geometry">
            <mxPoint x="470" y="290" as="sourcePoint" />
            <mxPoint x="440" y="226" as="targetPoint" />
            <Array as="points">
              <mxPoint x="470" y="290" />
              <mxPoint x="450" y="260" />
              <mxPoint x="430" y="280" />
              <mxPoint x="400" y="260" />
              <mxPoint x="370" y="280" />
              <mxPoint x="340" y="260" />
              <mxPoint x="310" y="280" />
              <mxPoint x="280" y="260" />
              <mxPoint x="250" y="280" />
              <mxPoint x="220" y="260" />
              <mxPoint x="190" y="280" />
              <mxPoint x="160" y="260" />
            </Array>
          </mxGeometry>
        </mxCell>
        <mxCell id="HmIFvJZFF-LE-VKJrCdR-41" value="" style="shape=image;imageAspect=0;aspect=fixed;verticalLabelPosition=bottom;verticalAlign=top;image=data:image/png,iVBORw0KGgoAAAANSUhEUgAAACwAAAAcCAYAAAAa/l2sAAAAAXNSR0IArs4c6QAAAARnQU1BAACxjwv8YQUAAAAJcEhZcwAADsMAAA7DAcdvqGQAAAKySURBVFhH7ZXfS1NhGMf7A/wHuggCb4UY0oUQo5uiO8UQmYRYNxkhK2Rqw1lYFu1EekRYXuxmhKyLUTCE3YzcuciLFm3UCDUnSp3a5sqxRdOznW/v2V4Xue28O2dbFOwD5+J5z4/3c973eZ73GP4zWsKVkNOfsZXI0qg+/oqwFORx1bNDo/pgCMuQxAjCYn2royosiQiHRUg0ZMEQliB6zBhkrU7+A5x3lhGn4VFUhVMB2AxW+FN5OqBOQ4Tl6BJGXRtkP4rkd/xY4Dhw9Hpo7kbXoLUUcxwPd+g7fTqNED+AYe+n0vtqNEA4h6SPx2LkB43LYeVwLuKAccgDsQbjBggnIUzPQshUn41ZdEpKnR+Ac+0nHaiOTuEc0tGXcN69hSm7Bf2mSSzYrZiYX4EolYuzu4Qyz3UYHe/Il9XRISwhLnDo7uMQIN3jd/5mEHGYcI5/g6PJwRYmJH0wd3IIZtXzQqOwjINNNy53XIHro6Kl5O8jzIcyhbtSkEP7idtl6SGnt7H+hdUaE/CP9cIm7NK4MhqFdyHYzuD4DR+SBac9rD7gaEuSkV2dwcm2EXjjrI2tBHmf/PDpMT9SdKQS2oRzIfCGdvS7t4otSCkW6wta3UpK9KLN5Ma2+q5WQULMexNG/i326UgltAkXqrmjFMvic1ieFAtF/raCqa5uzLxKFH9GK/l1uHouMTuFxpQ4gEhW4VQhJUiZCbOYFpIkR9/j6bWLGHaFkdZlS3zXnLjQ48Im48DTKEyQ9xB5dg/mcXJijQzBbL+P8Yk5eEIx8rReaj/ttAsfIm/ANbqEqM4V/YPsa3CdFviS7GLVLSzHljG5yG70bPJI+a0w2AKq3eEQncLKJHN4HKxlChZf4TP3gavxW/pTolEoJ9xZByI1bhVD+N+jJdxsWsLNpiXcXIBfohuED4JjysgAAAAASUVORK5CYII=;" vertex="1" parent="1">
          <mxGeometry x="170" y="455" width="44" height="28" as="geometry" />
        </mxCell>
        <mxCell id="HmIFvJZFF-LE-VKJrCdR-42" value="" style="shape=image;imageAspect=0;aspect=fixed;verticalLabelPosition=bottom;verticalAlign=top;image=data:image/png,iVBORw0KGgoAAAANSUhEUgAAACwAAAAcCAYAAAAa/l2sAAAAAXNSR0IArs4c6QAAAARnQU1BAACxjwv8YQUAAAAJcEhZcwAADsMAAA7DAcdvqGQAAAKySURBVFhH7ZXfS1NhGMf7A/wHuggCb4UY0oUQo5uiO8UQmYRYNxkhK2Rqw1lYFu1EekRYXuxmhKyLUTCE3YzcuciLFm3UCDUnSp3a5sqxRdOznW/v2V4Xue28O2dbFOwD5+J5z4/3c973eZ73GP4zWsKVkNOfsZXI0qg+/oqwFORx1bNDo/pgCMuQxAjCYn2royosiQiHRUg0ZMEQliB6zBhkrU7+A5x3lhGn4VFUhVMB2AxW+FN5OqBOQ4Tl6BJGXRtkP4rkd/xY4Dhw9Hpo7kbXoLUUcxwPd+g7fTqNED+AYe+n0vtqNEA4h6SPx2LkB43LYeVwLuKAccgDsQbjBggnIUzPQshUn41ZdEpKnR+Ac+0nHaiOTuEc0tGXcN69hSm7Bf2mSSzYrZiYX4EolYuzu4Qyz3UYHe/Il9XRISwhLnDo7uMQIN3jd/5mEHGYcI5/g6PJwRYmJH0wd3IIZtXzQqOwjINNNy53XIHro6Kl5O8jzIcyhbtSkEP7idtl6SGnt7H+hdUaE/CP9cIm7NK4MhqFdyHYzuD4DR+SBac9rD7gaEuSkV2dwcm2EXjjrI2tBHmf/PDpMT9SdKQS2oRzIfCGdvS7t4otSCkW6wta3UpK9KLN5Ma2+q5WQULMexNG/i326UgltAkXqrmjFMvic1ieFAtF/raCqa5uzLxKFH9GK/l1uHouMTuFxpQ4gEhW4VQhJUiZCbOYFpIkR9/j6bWLGHaFkdZlS3zXnLjQ48Im48DTKEyQ9xB5dg/mcXJijQzBbL+P8Yk5eEIx8rReaj/ttAsfIm/ANbqEqM4V/YPsa3CdFviS7GLVLSzHljG5yG70bPJI+a0w2AKq3eEQncLKJHN4HKxlChZf4TP3gavxW/pTolEoJ9xZByI1bhVD+N+jJdxsWsLNpiXcXIBfohuED4JjysgAAAAASUVORK5CYII=;" vertex="1" parent="1">
          <mxGeometry x="392" y="452" width="44" height="28" as="geometry" />
        </mxCell>
      </root>
    </mxGraphModel>
  </diagram>
</mxfile>
